<?xml version="1.0" encoding="UTF-8"?>
<!DOCTYPE svg PUBLIC "-//W3C//DTD SVG 1.1//EN" "http://www.w3.org/Graphics/SVG/1.1/DTD/svg11.dtd">
<svg xmlns="http://www.w3.org/2000/svg" version="1.1" width="250px" height="250px" style="shape-rendering:geometricPrecision; text-rendering:geometricPrecision; image-rendering:optimizeQuality; fill-rule:evenodd; clip-rule:evenodd" xmlns:xlink="http://www.w3.org/1999/xlink">
<g><path style="opacity:0.971" fill="#000000" d="M 122.5,29.5 C 128.331,30.2754 133.998,31.7754 139.5,34C 166.243,43.4698 192.91,53.1365 219.5,63C 214.466,104.134 209.466,145.301 204.5,186.5C 178.225,201.554 151.725,216.221 125,230.5C 98.2745,216.221 71.7745,201.554 45.5,186.5C 40.5337,145.301 35.5337,104.134 30.5,63C 61.3034,51.9019 91.97,40.7352 122.5,29.5 Z M 124.5,54.5 C 143.596,96.5325 162.596,138.699 181.5,181C 174.808,181.831 168.142,181.664 161.5,180.5C 158.029,171.42 154.362,162.42 150.5,153.5C 133.5,152.167 116.5,152.167 99.5,153.5C 95.6378,162.42 91.9712,171.42 88.5,180.5C 81.8582,181.664 75.1915,181.831 68.5,181C 87.5822,139.004 106.249,96.8369 124.5,54.5 Z"/></g>
<g><path style="opacity:0.897" fill="#000000" d="M 124.5,93.5 C 125.79,94.0577 126.623,95.0577 127,96.5C 132.476,109.769 137.642,123.102 142.5,136.5C 130.833,136.5 119.167,136.5 107.5,136.5C 112.572,121.953 118.239,107.62 124.5,93.5 Z"/></g>
</svg>
