<?xml version="1.0" encoding="UTF-8"?>
<!DOCTYPE svg PUBLIC "-//W3C//DTD SVG 1.1//EN" "http://www.w3.org/Graphics/SVG/1.1/DTD/svg11.dtd">
<svg xmlns="http://www.w3.org/2000/svg" version="1.1" width="4096px" height="4096px" style="shape-rendering:geometricPrecision; text-rendering:geometricPrecision; image-rendering:optimizeQuality; fill-rule:evenodd; clip-rule:evenodd" xmlns:xlink="http://www.w3.org/1999/xlink">
<g><path style="opacity:0.997" fill="#000000" d="M 1145.5,-0.5 C 1154.17,-0.5 1162.83,-0.5 1171.5,-0.5C 1199.25,4.29077 1221.08,18.2908 1237,41.5C 1382.97,315.27 1528.8,589.103 1674.5,863C 1337.89,1467.06 1000.89,2070.89 663.5,2674.5C 663.167,2674.33 662.833,2674.17 662.5,2674C 797.596,1807.92 932.429,941.753 1067,75.5C 1076.66,33.001 1102.83,7.66766 1145.5,-0.5 Z"/></g>
<g><path style="opacity:0.996" fill="#000000" d="M 2034.5,575.5 C 2074.21,572.107 2105.04,586.774 2127,619.5C 2231.33,818.833 2335.67,1018.17 2440,1217.5C 2440.67,1218.5 2440.67,1219.5 2440,1220.5C 1827.69,1837.14 1215.03,2453.47 602,3069.5C 602.032,3067.4 602.699,3065.4 604,3063.5C 610.667,3051.5 617.333,3039.5 624,3027.5C 1071.25,2226.66 1518.25,1425.66 1965,624.5C 1980.43,597.203 2003.59,580.869 2034.5,575.5 Z"/></g>
<g><path style="opacity:0.999" fill="#000000" d="M 2063.5,4095.5 C 2048.83,4095.5 2034.17,4095.5 2019.5,4095.5C 1978.77,4091.87 1940.43,4080.04 1904.5,4060C 1457.83,3808 1011.17,3556 564.5,3304C 1373.83,2489.33 2183.17,1674.67 2992.5,860C 3026.64,833.878 3062.98,830.545 3101.5,850C 3126.13,865.082 3140.97,886.915 3146,915.5C 3274.03,1711.54 3402.2,2507.54 3530.5,3303.5C 3530.02,3304.48 3529.36,3305.31 3528.5,3306C 3075.34,3558.75 2622.34,3811.75 2169.5,4065C 2135.95,4081.8 2100.62,4091.97 2063.5,4095.5 Z"/></g>
</svg>
