<?xml version="1.0" encoding="UTF-8"?>
<!DOCTYPE svg PUBLIC "-//W3C//DTD SVG 1.1//EN" "http://www.w3.org/Graphics/SVG/1.1/DTD/svg11.dtd">
<svg xmlns="http://www.w3.org/2000/svg" version="1.1" width="256px" height="256px" style="shape-rendering:geometricPrecision; text-rendering:geometricPrecision; image-rendering:optimizeQuality; fill-rule:evenodd; clip-rule:evenodd" xmlns:xlink="http://www.w3.org/1999/xlink">
<g><path style="opacity:0.881" fill="#000000" d="M 128.5,-0.5 C 132.833,-0.5 137.167,-0.5 141.5,-0.5C 141.667,24.8355 141.5,50.1689 141,75.5C 126.058,86.0706 111.891,97.5706 98.5,110C 102.77,113.866 107.77,117.366 113.5,120.5C 113.5,121.5 113.5,122.5 113.5,123.5C 120.461,128.447 127.461,133.447 134.5,138.5C 135.413,141.055 136.08,143.721 136.5,146.5C 136.08,149.279 135.413,151.945 134.5,154.5C 132.289,154.967 130.289,155.967 128.5,157.5C 118.286,166.881 107.619,175.714 96.5,184C 94.1716,184.83 91.8383,185.663 89.5,186.5C 83.4343,184.768 78.4343,181.435 74.5,176.5C 71.0123,173.814 67.3456,171.481 63.5,169.5C 63.5,168.5 63.5,167.5 63.5,166.5C 58.4951,164.425 54.1617,161.259 50.5,157C 46.1734,155.427 43.0068,152.593 41,148.5C 40.3333,123.167 40.3333,97.8333 41,72.5C 42.1638,70.3512 43.3305,68.1846 44.5,66C 46.2166,64.4412 48.2166,63.6079 50.5,63.5C 50.5,62.5 50.5,61.5 50.5,60.5C 54.6476,57.5447 58.9809,54.7114 63.5,52C 72.3554,44.0869 82.022,36.2536 92.5,28.5C 93.3857,27.675 93.719,26.675 93.5,25.5C 96.8333,23.8333 100.167,22.1667 103.5,20.5C 103.5,19.5 103.5,18.5 103.5,17.5C 112.219,12.1021 120.552,6.10209 128.5,-0.5 Z"/></g>
<g><path style="opacity:0.004" fill="#000000" d="M 142.5,6.5 C 143.525,6.89657 143.692,7.56323 143,8.5C 142.536,7.90558 142.369,7.23891 142.5,6.5 Z"/></g>
<g><path style="opacity:0.004" fill="#000000" d="M 142.5,66.5 C 143.525,66.8966 143.692,67.5632 143,68.5C 142.536,67.9056 142.369,67.2389 142.5,66.5 Z"/></g>
<g><path style="opacity:0.893" fill="#000000" d="M 128.5,255.5 C 124.167,255.5 119.833,255.5 115.5,255.5C 115.333,230.164 115.5,204.831 116,179.5C 127.984,170.675 139.484,161.341 150.5,151.5C 152.289,149.967 154.289,148.967 156.5,148.5C 156.5,147.5 156.5,146.5 156.5,145.5C 157.552,145.649 158.552,145.483 159.5,145C 157.867,144.52 156.534,143.687 155.5,142.5C 144.301,133.537 132.967,124.537 121.5,115.5C 120.225,111.149 120.225,106.815 121.5,102.5C 128.126,97.5425 134.46,92.2092 140.5,86.5C 142.289,84.9668 144.289,83.9668 146.5,83.5C 146.5,82.5 146.5,81.5 146.5,80.5C 151.349,78.33 155.682,75.33 159.5,71.5C 162.196,70.4424 164.863,69.4424 167.5,68.5C 175.442,71.6143 182.109,76.4476 187.5,83C 191.613,85.5123 195.613,88.0123 199.5,90.5C 199.5,91.5 199.5,92.5 199.5,93.5C 203.145,94.6556 206.478,96.3222 209.5,98.5C 209.351,99.552 209.517,100.552 210,101.5C 210.333,101.167 210.667,100.833 211,100.5C 211.368,101.91 212.201,102.91 213.5,103.5C 214.667,131.161 214.833,158.827 214,186.5C 211.858,188.827 209.358,190.493 206.5,191.5C 206.5,192.5 206.5,193.5 206.5,194.5C 200.305,197.446 194.972,201.613 190.5,207C 177.972,216.045 165.639,225.212 153.5,234.5C 153.5,235.5 153.5,236.5 153.5,237.5C 151.289,237.967 149.289,238.967 147.5,240.5C 141.435,245.905 135.102,250.905 128.5,255.5 Z"/></g>
<g><path style="opacity:0.004" fill="#000000" d="M 155.5,142.5 C 154.833,143.167 154.833,143.167 155.5,142.5 Z"/></g>
</svg>
