<?xml version="1.0" standalone="no"?>
<!DOCTYPE svg PUBLIC "-//W3C//DTD SVG 20010904//EN"
 "http://www.w3.org/TR/2001/REC-SVG-20010904/DTD/svg10.dtd">
<svg version="1.0" xmlns="http://www.w3.org/2000/svg"
 width="445.000000pt" height="445.000000pt" viewBox="0 0 445.000000 445.000000"
 preserveAspectRatio="xMidYMid meet">

<g transform="translate(0.000000,445.000000) scale(0.100000,-0.100000)"
fill="#000000" stroke="none">
<path d="M1395 3476 c-74 -19 -144 -58 -198 -113 -62 -61 -89 -108 -121 -208
-168 -530 -190 -1191 -61 -1770 15 -66 38 -143 51 -171 49 -105 148 -189 265
-225 73 -23 132 -24 262 -4 448 67 876 242 1209 493 184 138 417 381 507 528
65 106 77 254 32 374 -11 30 -53 98 -92 150 -369 492 -928 820 -1598 940 -129
23 -183 24 -256 6z"/>
</g>
</svg>
