<?xml version="1.0" encoding="UTF-8"?>
<!DOCTYPE svg PUBLIC "-//W3C//DTD SVG 1.1//EN" "http://www.w3.org/Graphics/SVG/1.1/DTD/svg11.dtd">
<svg xmlns="http://www.w3.org/2000/svg" version="1.1" width="256px" height="256px" style="shape-rendering:geometricPrecision; text-rendering:geometricPrecision; image-rendering:optimizeQuality; fill-rule:evenodd; clip-rule:evenodd" xmlns:xlink="http://www.w3.org/1999/xlink">
<g><path style="opacity:0.004" fill="#000000" d="M 120.5,61.5 C 122.628,60.3709 124.961,60.2042 127.5,61C 125.19,61.4966 122.857,61.6633 120.5,61.5 Z"/></g>
<g><path style="opacity:0.01" fill="#000000" d="M 113.5,62.5 C 114.601,61.4017 115.934,61.235 117.5,62C 116.207,62.49 114.873,62.6567 113.5,62.5 Z"/></g>
<g><path style="opacity:0.01" fill="#000000" d="M 134.5,62.5 C 135.946,61.3871 137.613,61.2204 139.5,62C 137.866,62.4935 136.199,62.6602 134.5,62.5 Z"/></g>
<g><path style="opacity:0.009" fill="#000000" d="M 112.5,63.5 C 111.448,63.6495 110.448,63.4828 109.5,63C 110.749,62.2599 111.749,62.4265 112.5,63.5 Z"/></g>
<g><path style="opacity:0.948" fill="#000000" d="M 144.5,64.5 C 146.214,65.7384 148.214,66.405 150.5,66.5C 152.649,67.7362 154.982,68.7362 157.5,69.5C 160.796,71.8208 164.129,74.1542 167.5,76.5C 172.446,82.1125 177.779,87.4459 183.5,92.5C 186.161,95.5023 189.495,97.5023 193.5,98.5C 194.209,99.404 195.209,99.7373 196.5,99.5C 202.156,102.059 207.823,102.059 213.5,99.5C 214.791,99.7373 215.791,99.404 216.5,98.5C 223.729,96.1185 229.396,91.6185 233.5,85C 234.437,84.3083 235.103,84.475 235.5,85.5C 234.076,87.5145 233.41,89.8478 233.5,92.5C 232.596,93.209 232.263,94.209 232.5,95.5C 230.992,97.1815 229.992,99.1815 229.5,101.5C 228.662,101.842 228.328,102.508 228.5,103.5C 227.662,103.842 227.328,104.508 227.5,105.5C 226.833,105.5 226.5,105.833 226.5,106.5C 225.094,106.973 224.427,107.973 224.5,109.5C 223.833,109.5 223.5,109.833 223.5,110.5C 222.833,110.5 222.5,110.833 222.5,111.5C 221.833,111.5 221.5,111.833 221.5,112.5C 220.833,112.5 220.5,112.833 220.5,113.5C 219.833,113.5 219.5,113.833 219.5,114.5C 218.833,114.5 218.5,114.833 218.5,115.5C 217.833,115.5 217.5,115.833 217.5,116.5C 216.833,116.5 216.5,116.833 216.5,117.5C 214.973,117.427 213.973,118.094 213.5,119.5C 212.833,119.5 212.5,119.833 212.5,120.5C 211.508,120.328 210.842,120.662 210.5,121.5C 209.508,121.328 208.842,121.662 208.5,122.5C 207.508,122.328 206.842,122.662 206.5,123.5C 205.508,123.328 204.842,123.662 204.5,124.5C 203.508,124.328 202.842,124.662 202.5,125.5C 201.209,125.263 200.209,125.596 199.5,126.5C 188.896,128.696 178.23,129.029 167.5,127.5C 166.432,126.566 165.099,126.232 163.5,126.5C 161.786,125.262 159.786,124.595 157.5,124.5C 156.22,123.069 154.553,122.402 152.5,122.5C 152.158,121.662 151.492,121.328 150.5,121.5C 150.027,120.094 149.027,119.427 147.5,119.5C 141.845,115.177 136.512,110.51 131.5,105.5C 129.5,102.833 127.167,100.5 124.5,98.5C 124.027,97.0937 123.027,96.427 121.5,96.5C 121.027,95.0937 120.027,94.427 118.5,94.5C 116.574,92.7073 114.241,91.7073 111.5,91.5C 109.022,90.8359 106.355,90.5025 103.5,90.5C 99.5313,90.2942 95.8646,90.9608 92.5,92.5C 91.209,92.2627 90.209,92.596 89.5,93.5C 88.5084,93.3284 87.8417,93.6618 87.5,94.5C 85.9731,94.427 84.9731,95.0937 84.5,96.5C 83.8333,96.5 83.5,96.8333 83.5,97.5C 82.5084,97.3284 81.8417,97.6618 81.5,98.5C 80.8333,98.5 80.5,98.8333 80.5,99.5C 79.8333,99.5 79.5,99.8333 79.5,100.5C 78.8333,100.5 78.5,100.833 78.5,101.5C 77.0937,101.973 76.427,102.973 76.5,104.5C 75.8485,105.091 75.1818,105.757 74.5,106.5C 75.7259,92.0494 82.3925,80.5494 94.5,72C 99.101,69.2021 103.768,66.7021 108.5,64.5C 110.099,64.7678 111.432,64.4345 112.5,63.5C 123.221,62.0591 133.888,62.3925 144.5,64.5 Z M 121.5,96.5 C 123.027,96.427 124.027,97.0937 124.5,98.5C 122.973,98.573 121.973,97.9063 121.5,96.5 Z M 78.5,101.5 C 78.573,103.027 77.9063,104.027 76.5,104.5C 76.427,102.973 77.0937,101.973 78.5,101.5 Z"/></g>
<g><path style="opacity:0.01" fill="#000000" d="M 108.5,64.5 C 107.761,64.631 107.094,64.4643 106.5,64C 107.437,63.3083 108.103,63.475 108.5,64.5 Z"/></g>
<g><path style="opacity:0.008" fill="#000000" d="M 144.5,64.5 C 145.251,63.4265 146.251,63.2599 147.5,64C 146.552,64.4828 145.552,64.6495 144.5,64.5 Z"/></g>
<g><path style="opacity:0.008" fill="#000000" d="M 103.5,65.5 C 103.897,64.475 104.563,64.3083 105.5,65C 104.906,65.4643 104.239,65.631 103.5,65.5 Z"/></g>
<g><path style="opacity:0.008" fill="#000000" d="M 150.5,65.5 C 149.761,65.631 149.094,65.4643 148.5,65C 149.437,64.3083 150.103,64.475 150.5,65.5 Z"/></g>
<g><path style="opacity:0.01" fill="#000000" d="M 150.5,66.5 C 150.5,66.1667 150.5,65.8333 150.5,65.5C 153.167,65.8333 153.167,66.1667 150.5,66.5 Z"/></g>
<g><path style="opacity:0.012" fill="#000000" d="M 157.5,68.5 C 158.833,69.1667 158.833,69.1667 157.5,68.5 Z"/></g>
<g><path style="opacity:0.012" fill="#000000" d="M 159.5,69.5 C 160.833,70.1667 160.833,70.1667 159.5,69.5 Z"/></g>
<g><path style="opacity:0.004" fill="#000000" d="M 90.5,72.5 C 91.8333,73.1667 91.8333,73.1667 90.5,72.5 Z"/></g>
<g><path style="opacity:0.012" fill="#000000" d="M 167.5,75.5 C 168.833,76.1667 168.833,76.1667 167.5,75.5 Z"/></g>
<g><path style="opacity:0.004" fill="#000000" d="M 170.5,77.5 C 169.833,76.1667 169.833,76.1667 170.5,77.5 Z"/></g>
<g><path style="opacity:0.008" fill="#000000" d="M 170.5,77.5 C 171.833,78.1667 171.833,78.1667 170.5,77.5 Z"/></g>
<g><path style="opacity:0.008" fill="#000000" d="M 235.5,85.5 C 236.573,86.2506 236.74,87.2506 236,88.5C 235.517,87.552 235.351,86.552 235.5,85.5 Z"/></g>
<g><path style="opacity:0.009" fill="#000000" d="M 234.5,92.5 C 234.351,91.448 234.517,90.448 235,89.5C 235.74,90.7494 235.573,91.7494 234.5,92.5 Z"/></g>
<g><path style="opacity:0.009" fill="#000000" d="M 96.5,92.5 C 97.6009,91.4017 98.9343,91.235 100.5,92C 99.2068,92.49 97.8734,92.6567 96.5,92.5 Z"/></g>
<g><path style="opacity:0.009" fill="#000000" d="M 111.5,91.5 C 110.054,92.6129 108.387,92.7796 106.5,92C 108.134,91.5065 109.801,91.3398 111.5,91.5 Z"/></g>
<g><path style="opacity:0.016" fill="#000000" d="M 183.5,91.5 C 184.833,92.1667 184.833,92.1667 183.5,91.5 Z"/></g>
<g><path style="opacity:0.009" fill="#000000" d="M 92.5,92.5 C 93.552,92.3505 94.552,92.5172 95.5,93C 94.2506,93.7401 93.2506,93.5735 92.5,92.5 Z"/></g>
<g><path style="opacity:0.008" fill="#000000" d="M 185.5,92.5 C 186.833,93.1667 186.833,93.1667 185.5,92.5 Z"/></g>
<g><path style="opacity:0.007" fill="#000000" d="M 233.5,92.5 C 233.833,92.5 234.167,92.5 234.5,92.5C 234.737,93.791 234.404,94.791 233.5,95.5C 233.5,94.5 233.5,93.5 233.5,92.5 Z"/></g>
<g><path style="opacity:0.008" fill="#000000" d="M 89.5,94.5 C 89.5,94.1667 89.5,93.8333 89.5,93.5C 92.1667,93.8333 92.1667,94.1667 89.5,94.5 Z"/></g>
<g><path style="opacity:0.008" fill="#000000" d="M 87.5,95.5 C 87.5,95.1667 87.5,94.8333 87.5,94.5C 88.1667,94.5 88.8333,94.5 89.5,94.5C 89.1583,95.3382 88.4916,95.6716 87.5,95.5 Z"/></g>
<g><path style="opacity:0.008" fill="#000000" d="M 118.5,94.5 C 118.5,94.8333 118.5,95.1667 118.5,95.5C 115.833,95.1667 115.833,94.8333 118.5,94.5 Z"/></g>
<g><path style="opacity:0.012" fill="#000000" d="M 87.5,95.5 C 86.8333,96.1667 86.8333,96.1667 87.5,95.5 Z"/></g>
<g><path style="opacity:0.012" fill="#000000" d="M 118.5,95.5 C 119.833,96.1667 119.833,96.1667 118.5,95.5 Z"/></g>
<g><path style="opacity:0.012" fill="#000000" d="M 219.5,95.5 C 220.833,96.1667 220.833,96.1667 219.5,95.5 Z"/></g>
<g><path style="opacity:0.008" fill="#000000" d="M 232.5,95.5 C 232.833,95.5 233.167,95.5 233.5,95.5C 233.167,98.1667 232.833,98.1667 232.5,95.5 Z"/></g>
<g><path style="opacity:0.016" fill="#000000" d="M 84.5,96.5 C 85.8333,97.1667 85.8333,97.1667 84.5,96.5 Z"/></g>
<g><path style="opacity:0.008" fill="#000000" d="M 216.5,97.5 C 216.897,96.475 217.563,96.3083 218.5,97C 217.906,97.4643 217.239,97.631 216.5,97.5 Z"/></g>
<g><path style="opacity:0.012" fill="#000000" d="M 83.5,97.5 C 83.8333,97.5 84.1667,97.5 84.5,97.5C 84.3147,98.1701 83.9813,98.1701 83.5,97.5 Z"/></g>
<g><path style="opacity:0.008" fill="#000000" d="M 193.5,98.5 C 193.897,97.475 194.563,97.3083 195.5,98C 194.906,98.4643 194.239,98.631 193.5,98.5 Z"/></g>
<g><path style="opacity:0.012" fill="#000000" d="M 216.5,97.5 C 216.5,97.8333 216.5,98.1667 216.5,98.5C 213.833,98.1667 213.833,97.8333 216.5,97.5 Z"/></g>
<g><path style="opacity:0.004" fill="#000000" d="M 81.5,99.5 C 81.5,99.1667 81.5,98.8333 81.5,98.5C 82.1667,98.5 82.8333,98.5 83.5,98.5C 83.1583,99.3382 82.4916,99.6716 81.5,99.5 Z"/></g>
<g><path style="opacity:0.009" fill="#000000" d="M 196.5,99.5 C 197.251,98.4265 198.251,98.2599 199.5,99C 198.552,99.4828 197.552,99.6495 196.5,99.5 Z"/></g>
<g><path style="opacity:0.008" fill="#000000" d="M 213.5,99.5 C 212.127,99.6567 210.793,99.49 209.5,99C 211.066,98.235 212.399,98.4017 213.5,99.5 Z"/></g>
<g><path style="opacity:0.012" fill="#000000" d="M 231.5,98.5 C 232.833,99.1667 232.833,99.1667 231.5,98.5 Z"/></g>
<g><path style="opacity:0.01" fill="#000000" d="M 72.5,99.5 C 73.5735,100.251 73.7401,101.251 73,102.5C 72.5172,101.552 72.3505,100.552 72.5,99.5 Z"/></g>
<g><path style="opacity:0.012" fill="#000000" d="M 80.5,99.5 C 80.8333,99.5 81.1667,99.5 81.5,99.5C 81.3147,100.17 80.9813,100.17 80.5,99.5 Z"/></g>
<g><path style="opacity:0.004" fill="#000000" d="M 202.5,100.5 C 203.601,99.4017 204.934,99.235 206.5,100C 205.207,100.49 203.873,100.657 202.5,100.5 Z"/></g>
<g><path style="opacity:0.012" fill="#000000" d="M 79.5,100.5 C 79.8333,100.5 80.1667,100.5 80.5,100.5C 80.3147,101.17 79.9813,101.17 79.5,100.5 Z"/></g>
<g><path style="opacity:0.012" fill="#000000" d="M 230.5,100.5 C 231.833,101.167 231.833,101.167 230.5,100.5 Z"/></g>
<g><path style="opacity:0.006" fill="#000000" d="M 229.5,101.5 C 229.833,101.5 230.167,101.5 230.5,101.5C 230.672,102.492 230.338,103.158 229.5,103.5C 229.5,102.833 229.5,102.167 229.5,101.5 Z"/></g>
<g><path style="opacity:0.008" fill="#000000" d="M 228.5,103.5 C 228.833,103.5 229.167,103.5 229.5,103.5C 229.672,104.492 229.338,105.158 228.5,105.5C 228.5,104.833 228.5,104.167 228.5,103.5 Z"/></g>
<g><path style="opacity:0.004" fill="#000000" d="M 71.5,104.5 C 72.8333,105.167 72.8333,105.167 71.5,104.5 Z"/></g>
<g><path style="opacity:0.012" fill="#000000" d="M 131.5,105.5 C 130.833,106.167 130.833,106.167 131.5,105.5 Z"/></g>
<g><path style="opacity:0.012" fill="#000000" d="M 227.5,105.5 C 227.833,105.5 228.167,105.5 228.5,105.5C 228.315,106.17 227.981,106.17 227.5,105.5 Z"/></g>
<g><path style="opacity:0.012" fill="#000000" d="M 226.5,106.5 C 226.833,106.5 227.167,106.5 227.5,106.5C 227.315,107.17 226.981,107.17 226.5,106.5 Z"/></g>
<g><path style="opacity:0.004" fill="#000000" d="M 132.5,108.5 C 131.833,107.167 131.833,107.167 132.5,108.5 Z"/></g>
<g><path style="opacity:0.008" fill="#000000" d="M 132.5,108.5 C 133.833,109.167 133.833,109.167 132.5,108.5 Z"/></g>
<g><path style="opacity:0.008" fill="#000000" d="M 225.5,108.5 C 226.833,109.167 226.833,109.167 225.5,108.5 Z"/></g>
<g><path style="opacity:0.012" fill="#000000" d="M 224.5,109.5 C 224.833,109.5 225.167,109.5 225.5,109.5C 225.315,110.17 224.981,110.17 224.5,109.5 Z"/></g>
<g><path style="opacity:0.016" fill="#000000" d="M 223.5,110.5 C 223.833,110.5 224.167,110.5 224.5,110.5C 224.315,111.17 223.981,111.17 223.5,110.5 Z"/></g>
<g><path style="opacity:0.016" fill="#000000" d="M 222.5,111.5 C 222.833,111.5 223.167,111.5 223.5,111.5C 223.315,112.17 222.981,112.17 222.5,111.5 Z"/></g>
<g><path style="opacity:0.012" fill="#000000" d="M 221.5,112.5 C 221.833,112.5 222.167,112.5 222.5,112.5C 222.315,113.17 221.981,113.17 221.5,112.5 Z"/></g>
<g><path style="opacity:0.012" fill="#000000" d="M 220.5,113.5 C 220.833,113.5 221.167,113.5 221.5,113.5C 221.315,114.17 220.981,114.17 220.5,113.5 Z"/></g>
<g><path style="opacity:0.012" fill="#000000" d="M 219.5,114.5 C 219.833,114.5 220.167,114.5 220.5,114.5C 220.315,115.17 219.981,115.17 219.5,114.5 Z"/></g>
<g><path style="opacity:0.016" fill="#000000" d="M 218.5,115.5 C 218.833,115.5 219.167,115.5 219.5,115.5C 219.315,116.17 218.981,116.17 218.5,115.5 Z"/></g>
<g><path style="opacity:0.016" fill="#000000" d="M 217.5,116.5 C 217.833,116.5 218.167,116.5 218.5,116.5C 218.315,117.17 217.981,117.17 217.5,116.5 Z"/></g>
<g><path style="opacity:0.012" fill="#000000" d="M 216.5,117.5 C 216.833,117.5 217.167,117.5 217.5,117.5C 217.315,118.17 216.981,118.17 216.5,117.5 Z"/></g>
<g><path style="opacity:0.008" fill="#000000" d="M 216.5,118.5 C 215.833,119.167 215.833,119.167 216.5,118.5 Z"/></g>
<g><path style="opacity:0.008" fill="#000000" d="M 147.5,119.5 C 147.5,119.833 147.5,120.167 147.5,120.5C 144.833,120.167 144.833,119.833 147.5,119.5 Z"/></g>
<g><path style="opacity:0.012" fill="#000000" d="M 213.5,119.5 C 214.833,120.167 214.833,120.167 213.5,119.5 Z"/></g>
<g><path style="opacity:0.008" fill="#000000" d="M 147.5,120.5 C 148.833,121.167 148.833,121.167 147.5,120.5 Z"/></g>
<g><path style="opacity:0.012" fill="#000000" d="M 212.5,120.5 C 212.833,120.5 213.167,120.5 213.5,120.5C 213.315,121.17 212.981,121.17 212.5,120.5 Z"/></g>
<g><path style="opacity:0.012" fill="#000000" d="M 150.5,121.5 C 149.833,122.167 149.833,122.167 150.5,121.5 Z"/></g>
<g><path style="opacity:0.008" fill="#000000" d="M 210.5,122.5 C 210.5,122.167 210.5,121.833 210.5,121.5C 211.167,121.5 211.833,121.5 212.5,121.5C 212.158,122.338 211.492,122.672 210.5,122.5 Z"/></g>
<g><path style="opacity:0.012" fill="#000000" d="M 152.5,122.5 C 151.833,123.167 151.833,123.167 152.5,122.5 Z"/></g>
<g><path style="opacity:0.008" fill="#000000" d="M 208.5,123.5 C 208.5,123.167 208.5,122.833 208.5,122.5C 209.167,122.5 209.833,122.5 210.5,122.5C 210.158,123.338 209.492,123.672 208.5,123.5 Z"/></g>
<g><path style="opacity:0.012" fill="#000000" d="M 153.5,123.5 C 154.833,124.167 154.833,124.167 153.5,123.5 Z"/></g>
<g><path style="opacity:0.008" fill="#000000" d="M 206.5,124.5 C 206.5,124.167 206.5,123.833 206.5,123.5C 207.167,123.5 207.833,123.5 208.5,123.5C 208.158,124.338 207.492,124.672 206.5,124.5 Z"/></g>
<g><path style="opacity:0.004" fill="#000000" d="M 67.5,125.5 C 69.6282,124.371 71.9615,124.204 74.5,125C 72.1902,125.497 69.8568,125.663 67.5,125.5 Z"/></g>
<g><path style="opacity:0.008" fill="#000000" d="M 157.5,124.5 C 157.5,124.833 157.5,125.167 157.5,125.5C 154.833,125.167 154.833,124.833 157.5,124.5 Z"/></g>
<g><path style="opacity:0.01" fill="#000000" d="M 204.5,125.5 C 204.5,125.167 204.5,124.833 204.5,124.5C 205.167,124.5 205.833,124.5 206.5,124.5C 206.158,125.338 205.492,125.672 204.5,125.5 Z"/></g>
<g><path style="opacity:0.009" fill="#000000" d="M 59.5,126.5 C 60.9464,125.387 62.6131,125.22 64.5,126C 62.8659,126.494 61.1992,126.66 59.5,126.5 Z"/></g>
<g><path style="opacity:0.009" fill="#000000" d="M 81.5,126.5 C 82.9464,125.387 84.6131,125.22 86.5,126C 84.8659,126.494 83.1992,126.66 81.5,126.5 Z"/></g>
<g><path style="opacity:0.008" fill="#000000" d="M 157.5,125.5 C 158.239,125.369 158.906,125.536 159.5,126C 158.563,126.692 157.897,126.525 157.5,125.5 Z"/></g>
<g><path style="opacity:0.01" fill="#000000" d="M 202.5,125.5 C 203.167,125.5 203.833,125.5 204.5,125.5C 203.833,126.833 203.167,126.833 202.5,125.5 Z"/></g>
<g><path style="opacity:0.012" fill="#000000" d="M 56.5,127.5 C 56.8966,126.475 57.5632,126.308 58.5,127C 57.9056,127.464 57.2389,127.631 56.5,127.5 Z"/></g>
<g><path style="opacity:0.949" fill="#000000" d="M 87.5,127.5 C 90.6189,128.87 93.9523,129.87 97.5,130.5C 98.7804,131.931 100.447,132.598 102.5,132.5C 106.101,134.977 109.767,137.477 113.5,140C 119.009,145.675 124.675,151.175 130.5,156.5C 130.973,157.906 131.973,158.573 133.5,158.5C 135.336,160.588 137.669,161.921 140.5,162.5C 141.209,163.404 142.209,163.737 143.5,163.5C 145.978,164.164 148.645,164.497 151.5,164.5C 155.469,164.706 159.135,164.039 162.5,162.5C 168.218,161.111 172.885,158.111 176.5,153.5C 177.906,153.027 178.573,152.027 178.5,150.5C 179.151,149.909 179.818,149.243 180.5,148.5C 180.833,149 181.167,149.5 181.5,150C 180.767,151.766 180.433,153.599 180.5,155.5C 179.596,156.209 179.263,157.209 179.5,158.5C 178.596,159.209 178.263,160.209 178.5,161.5C 177.662,161.842 177.328,162.508 177.5,163.5C 176.662,163.842 176.328,164.508 176.5,165.5C 175.662,165.842 175.328,166.508 175.5,167.5C 174.833,167.5 174.5,167.833 174.5,168.5C 173.662,168.842 173.328,169.508 173.5,170.5C 172.833,170.5 172.5,170.833 172.5,171.5C 171.833,171.5 171.5,171.833 171.5,172.5C 170.662,172.842 170.328,173.508 170.5,174.5C 169.833,174.5 169.5,174.833 169.5,175.5C 168.833,175.5 168.5,175.833 168.5,176.5C 167.833,176.5 167.5,176.833 167.5,177.5C 166.833,177.5 166.5,177.833 166.5,178.5C 165.833,178.5 165.5,178.833 165.5,179.5C 164.833,179.5 164.5,179.833 164.5,180.5C 162.973,180.427 161.973,181.094 161.5,182.5C 160.833,182.5 160.5,182.833 160.5,183.5C 159.508,183.328 158.842,183.662 158.5,184.5C 157.833,184.5 157.5,184.833 157.5,185.5C 156.508,185.328 155.842,185.662 155.5,186.5C 154.508,186.328 153.842,186.662 153.5,187.5C 152.508,187.328 151.842,187.662 151.5,188.5C 149.447,188.402 147.78,189.069 146.5,190.5C 144.901,190.232 143.568,190.566 142.5,191.5C 133.169,192.789 123.836,192.789 114.5,191.5C 111.381,190.13 108.048,189.13 104.5,188.5C 103.791,187.596 102.791,187.263 101.5,187.5C 101.158,186.662 100.492,186.328 99.5,186.5C 98.1007,185.11 96.4341,184.11 94.5,183.5C 90.8386,180.84 87.1719,178.174 83.5,175.5C 79.4788,169.479 74.4788,164.479 68.5,160.5C 65.7534,157.793 62.4201,156.127 58.5,155.5C 52.8437,152.941 47.177,152.941 41.5,155.5C 40.209,155.263 39.209,155.596 38.5,156.5C 35.911,156.461 33.911,157.461 32.5,159.5C 31.5084,159.328 30.8417,159.662 30.5,160.5C 29.8333,160.5 29.5,160.833 29.5,161.5C 28.8333,161.5 28.5,161.833 28.5,162.5C 27.8333,162.5 27.5,162.833 27.5,163.5C 26.8333,163.5 26.5,163.833 26.5,164.5C 25.8333,164.5 25.5,164.833 25.5,165.5C 24.8333,165.5 24.5,165.833 24.5,166.5C 23.8333,166.5 23.5,166.833 23.5,167.5C 22.7326,168.172 22.0659,169.005 21.5,170C 20.5632,170.692 19.8966,170.525 19.5,169.5C 24.3996,149.6 36.3996,135.934 55.5,128.5C 66.101,126.267 76.7677,125.934 87.5,127.5 Z M 178.5,150.5 C 178.573,152.027 177.906,153.027 176.5,153.5C 176.427,151.973 177.094,150.973 178.5,150.5 Z M 130.5,156.5 C 132.027,156.427 133.027,157.094 133.5,158.5C 131.973,158.573 130.973,157.906 130.5,156.5 Z"/></g>
<g><path style="opacity:0.01" fill="#000000" d="M 87.5,127.5 C 88.2506,126.427 89.2506,126.26 90.5,127C 89.552,127.483 88.552,127.649 87.5,127.5 Z"/></g>
<g><path style="opacity:0.008" fill="#000000" d="M 163.5,126.5 C 162.749,127.573 161.749,127.74 160.5,127C 161.448,126.517 162.448,126.351 163.5,126.5 Z"/></g>
<g><path style="opacity:0.01" fill="#000000" d="M 199.5,126.5 C 200.239,126.369 200.906,126.536 201.5,127C 200.563,127.692 199.897,127.525 199.5,126.5 Z"/></g>
<g><path style="opacity:0.01" fill="#000000" d="M 55.5,128.5 C 54.7611,128.631 54.0944,128.464 53.5,128C 54.4368,127.308 55.1034,127.475 55.5,128.5 Z"/></g>
<g><path style="opacity:0.009" fill="#000000" d="M 167.5,127.5 C 166.749,128.573 165.749,128.74 164.5,128C 165.448,127.517 166.448,127.351 167.5,127.5 Z"/></g>
<g><path style="opacity:0.01" fill="#000000" d="M 196.5,128.5 C 196.897,127.475 197.563,127.308 198.5,128C 197.906,128.464 197.239,128.631 196.5,128.5 Z"/></g>
<g><path style="opacity:0.009" fill="#000000" d="M 168.5,129.5 C 169.946,128.387 171.613,128.22 173.5,129C 171.866,129.494 170.199,129.66 168.5,129.5 Z"/></g>
<g><path style="opacity:0.009" fill="#000000" d="M 190.5,129.5 C 191.946,128.387 193.613,128.22 195.5,129C 193.866,129.494 192.199,129.66 190.5,129.5 Z"/></g>
<g><path style="opacity:0.008" fill="#000000" d="M 97.5,130.5 C 97.8966,129.475 98.5632,129.308 99.5,130C 98.9056,130.464 98.2389,130.631 97.5,130.5 Z"/></g>
<g><path style="opacity:0.004" fill="#000000" d="M 180.5,130.5 C 182.628,129.371 184.961,129.204 187.5,130C 185.19,130.497 182.857,130.663 180.5,130.5 Z"/></g>
<g><path style="opacity:0.012" fill="#000000" d="M 100.5,130.5 C 101.833,131.167 101.833,131.167 100.5,130.5 Z"/></g>
<g><path style="opacity:0.012" fill="#000000" d="M 102.5,131.5 C 103.833,132.167 103.833,132.167 102.5,131.5 Z"/></g>
<g><path style="opacity:0.008" fill="#000000" d="M 38.5,135.5 C 39.8333,136.167 39.8333,136.167 38.5,135.5 Z"/></g>
<g><path style="opacity:0.008" fill="#000000" d="M 121.5,145.5 C 120.833,144.167 120.833,144.167 121.5,145.5 Z"/></g>
<g><path style="opacity:0.008" fill="#000000" d="M 28.5,145.5 C 29.8333,146.167 29.8333,146.167 28.5,145.5 Z"/></g>
<g><path style="opacity:0.008" fill="#000000" d="M 121.5,145.5 C 122.167,145.5 122.5,145.833 122.5,146.5C 122.167,146.167 121.833,145.833 121.5,145.5 Z"/></g>
<g><path style="opacity:0.004" fill="#000000" d="M 122.5,146.5 C 123.833,147.167 123.833,147.167 122.5,146.5 Z"/></g>
<g><path style="opacity:0.004" fill="#000000" d="M 182.5,149.5 C 183.833,150.167 183.833,150.167 182.5,149.5 Z"/></g>
<g><path style="opacity:0.01" fill="#000000" d="M 181.5,155.5 C 181.351,154.448 181.517,153.448 182,152.5C 182.74,153.749 182.573,154.749 181.5,155.5 Z"/></g>
<g><path style="opacity:0.012" fill="#000000" d="M 23.5,153.5 C 24.8333,154.167 24.8333,154.167 23.5,153.5 Z"/></g>
<g><path style="opacity:0.005" fill="#000000" d="M 48.5,155.5 C 49.6009,154.402 50.9343,154.235 52.5,155C 51.2068,155.49 49.8734,155.657 48.5,155.5 Z"/></g>
<g><path style="opacity:0.012" fill="#000000" d="M 22.5,155.5 C 23.8333,156.167 23.8333,156.167 22.5,155.5 Z"/></g>
<g><path style="opacity:0.008" fill="#000000" d="M 41.5,155.5 C 42.8734,155.343 44.2068,155.51 45.5,156C 43.9343,156.765 42.6009,156.598 41.5,155.5 Z"/></g>
<g><path style="opacity:0.009" fill="#000000" d="M 58.5,155.5 C 57.7494,156.573 56.7494,156.74 55.5,156C 56.448,155.517 57.448,155.351 58.5,155.5 Z"/></g>
<g><path style="opacity:0.007" fill="#000000" d="M 180.5,155.5 C 180.833,155.5 181.167,155.5 181.5,155.5C 181.737,156.791 181.404,157.791 180.5,158.5C 180.5,157.5 180.5,156.5 180.5,155.5 Z"/></g>
<g><path style="opacity:0.012" fill="#000000" d="M 38.5,157.5 C 38.5,157.167 38.5,156.833 38.5,156.5C 41.1667,156.833 41.1667,157.167 38.5,157.5 Z"/></g>
<g><path style="opacity:0.008" fill="#000000" d="M 38.5,157.5 C 38.1034,158.525 37.4368,158.692 36.5,158C 37.0944,157.536 37.7611,157.369 38.5,157.5 Z"/></g>
<g><path style="opacity:0.012" fill="#000000" d="M 34.5,158.5 C 35.8333,159.167 35.8333,159.167 34.5,158.5 Z"/></g>
<g><path style="opacity:0.012" fill="#000000" d="M 135.5,158.5 C 136.833,159.167 136.833,159.167 135.5,158.5 Z"/></g>
<g><path style="opacity:0.012" fill="#000000" d="M 167.5,158.5 C 168.833,159.167 168.833,159.167 167.5,158.5 Z"/></g>
<g><path style="opacity:0.01" fill="#000000" d="M 179.5,158.5 C 179.833,158.5 180.167,158.5 180.5,158.5C 180.167,161.167 179.833,161.167 179.5,158.5 Z"/></g>
<g><path style="opacity:0.016" fill="#000000" d="M 32.5,159.5 C 33.8333,160.167 33.8333,160.167 32.5,159.5 Z"/></g>
<g><path style="opacity:0.008" fill="#000000" d="M 30.5,161.5 C 30.5,161.167 30.5,160.833 30.5,160.5C 31.1667,160.5 31.8333,160.5 32.5,160.5C 32.1583,161.338 31.4916,161.672 30.5,161.5 Z"/></g>
<g><path style="opacity:0.016" fill="#000000" d="M 68.5,160.5 C 68.5,160.833 68.5,161.167 68.5,161.5C 67.8299,161.019 67.8299,160.685 68.5,160.5 Z"/></g>
<g><path style="opacity:0.016" fill="#000000" d="M 29.5,161.5 C 29.8333,161.5 30.1667,161.5 30.5,161.5C 30.3147,162.17 29.9813,162.17 29.5,161.5 Z"/></g>
<g><path style="opacity:0.008" fill="#000000" d="M 68.5,161.5 C 69.8333,162.167 69.8333,162.167 68.5,161.5 Z"/></g>
<g><path style="opacity:0.008" fill="#000000" d="M 140.5,162.5 C 140.897,161.475 141.563,161.308 142.5,162C 141.906,162.464 141.239,162.631 140.5,162.5 Z"/></g>
<g><path style="opacity:0.008" fill="#000000" d="M 162.5,162.5 C 161.448,162.649 160.448,162.483 159.5,162C 160.749,161.26 161.749,161.427 162.5,162.5 Z"/></g>
<g><path style="opacity:0.008" fill="#000000" d="M 178.5,161.5 C 179.833,162.167 179.833,162.833 178.5,163.5C 178.5,162.833 178.5,162.167 178.5,161.5 Z"/></g>
<g><path style="opacity:0.009" fill="#000000" d="M 19.5,162.5 C 20.5735,163.251 20.7401,164.251 20,165.5C 19.5172,164.552 19.3505,163.552 19.5,162.5 Z"/></g>
<g><path style="opacity:0.016" fill="#000000" d="M 28.5,162.5 C 28.8333,162.5 29.1667,162.5 29.5,162.5C 29.3147,163.17 28.9813,163.17 28.5,162.5 Z"/></g>
<g><path style="opacity:0.009" fill="#000000" d="M 143.5,163.5 C 144.946,162.387 146.613,162.22 148.5,163C 146.866,163.494 145.199,163.66 143.5,163.5 Z"/></g>
<g><path style="opacity:0.009" fill="#000000" d="M 154.5,163.5 C 155.601,162.402 156.934,162.235 158.5,163C 157.207,163.49 155.873,163.657 154.5,163.5 Z"/></g>
<g><path style="opacity:0.012" fill="#000000" d="M 27.5,163.5 C 27.8333,163.5 28.1667,163.5 28.5,163.5C 28.3147,164.17 27.9813,164.17 27.5,163.5 Z"/></g>
<g><path style="opacity:0.008" fill="#000000" d="M 177.5,163.5 C 177.833,163.5 178.167,163.5 178.5,163.5C 178.672,164.492 178.338,165.158 177.5,165.5C 177.5,164.833 177.5,164.167 177.5,163.5 Z"/></g>
<g><path style="opacity:0.012" fill="#000000" d="M 26.5,164.5 C 26.8333,164.5 27.1667,164.5 27.5,164.5C 27.3147,165.17 26.9813,165.17 26.5,164.5 Z"/></g>
<g><path style="opacity:0.016" fill="#000000" d="M 25.5,165.5 C 25.8333,165.5 26.1667,165.5 26.5,165.5C 26.3147,166.17 25.9813,166.17 25.5,165.5 Z"/></g>
<g><path style="opacity:0.012" fill="#000000" d="M 176.5,165.5 C 176.833,165.5 177.167,165.5 177.5,165.5C 177.315,166.17 176.981,166.17 176.5,165.5 Z"/></g>
<g><path style="opacity:0.008" fill="#000000" d="M 19.5,169.5 C 18.4265,168.749 18.2599,167.749 19,166.5C 19.4828,167.448 19.6495,168.448 19.5,169.5 Z"/></g>
<g><path style="opacity:0.016" fill="#000000" d="M 24.5,166.5 C 24.8333,166.5 25.1667,166.5 25.5,166.5C 25.3147,167.17 24.9813,167.17 24.5,166.5 Z"/></g>
<g><path style="opacity:0.006" fill="#000000" d="M 23.5,167.5 C 23.8333,167.5 24.1667,167.5 24.5,167.5C 24.1667,170.167 23.8333,170.167 23.5,167.5 Z"/></g>
<g><path style="opacity:0.012" fill="#000000" d="M 175.5,167.5 C 176.833,168.167 176.833,168.167 175.5,167.5 Z"/></g>
<g><path style="opacity:0.008" fill="#000000" d="M 174.5,168.5 C 174.833,168.5 175.167,168.5 175.5,168.5C 175.672,169.492 175.338,170.158 174.5,170.5C 174.5,169.833 174.5,169.167 174.5,168.5 Z"/></g>
<g><path style="opacity:0.012" fill="#000000" d="M 173.5,170.5 C 173.833,170.5 174.167,170.5 174.5,170.5C 174.315,171.17 173.981,171.17 173.5,170.5 Z"/></g>
<g><path style="opacity:0.012" fill="#000000" d="M 172.5,171.5 C 172.833,171.5 173.167,171.5 173.5,171.5C 173.315,172.17 172.981,172.17 172.5,171.5 Z"/></g>
<g><path style="opacity:0.004" fill="#000000" d="M 171.5,172.5 C 171.833,172.5 172.167,172.5 172.5,172.5C 172.672,173.492 172.338,174.158 171.5,174.5C 171.5,173.833 171.5,173.167 171.5,172.5 Z"/></g>
<g><path style="opacity:0.008" fill="#000000" d="M 170.5,174.5 C 170.833,174.5 171.167,174.5 171.5,174.5C 171.315,175.17 170.981,175.17 170.5,174.5 Z"/></g>
<g><path style="opacity:0.008" fill="#000000" d="M 83.5,175.5 C 83.5,175.833 83.5,176.167 83.5,176.5C 82.8299,176.019 82.8299,175.685 83.5,175.5 Z"/></g>
<g><path style="opacity:0.012" fill="#000000" d="M 169.5,175.5 C 169.833,175.5 170.167,175.5 170.5,175.5C 170.315,176.17 169.981,176.17 169.5,175.5 Z"/></g>
<g><path style="opacity:0.008" fill="#000000" d="M 83.5,176.5 C 84.1667,176.5 84.5,176.833 84.5,177.5C 84.1667,177.167 83.8333,176.833 83.5,176.5 Z"/></g>
<g><path style="opacity:0.012" fill="#000000" d="M 168.5,176.5 C 168.833,176.5 169.167,176.5 169.5,176.5C 169.315,177.17 168.981,177.17 168.5,176.5 Z"/></g>
<g><path style="opacity:0.004" fill="#000000" d="M 84.5,177.5 C 85.8333,178.167 85.8333,178.167 84.5,177.5 Z"/></g>
<g><path style="opacity:0.016" fill="#000000" d="M 167.5,177.5 C 167.833,177.5 168.167,177.5 168.5,177.5C 168.315,178.17 167.981,178.17 167.5,177.5 Z"/></g>
<g><path style="opacity:0.016" fill="#000000" d="M 166.5,178.5 C 166.833,178.5 167.167,178.5 167.5,178.5C 167.315,179.17 166.981,179.17 166.5,178.5 Z"/></g>
<g><path style="opacity:0.012" fill="#000000" d="M 165.5,179.5 C 165.833,179.5 166.167,179.5 166.5,179.5C 166.315,180.17 165.981,180.17 165.5,179.5 Z"/></g>
<g><path style="opacity:0.008" fill="#000000" d="M 164.5,180.5 C 164.833,180.5 165.167,180.5 165.5,180.5C 165.315,181.17 164.981,181.17 164.5,180.5 Z"/></g>
<g><path style="opacity:0.004" fill="#000000" d="M 164.5,181.5 C 163.833,182.167 163.833,182.167 164.5,181.5 Z"/></g>
<g><path style="opacity:0.012" fill="#000000" d="M 161.5,182.5 C 162.833,183.167 162.833,183.167 161.5,182.5 Z"/></g>
<g><path style="opacity:0.006" fill="#000000" d="M 94.5,183.5 C 94.5,183.833 94.5,184.167 94.5,184.5C 91.8333,184.167 91.8333,183.833 94.5,183.5 Z"/></g>
<g><path style="opacity:0.012" fill="#000000" d="M 160.5,183.5 C 160.833,183.5 161.167,183.5 161.5,183.5C 161.315,184.17 160.981,184.17 160.5,183.5 Z"/></g>
<g><path style="opacity:0.012" fill="#000000" d="M 94.5,184.5 C 95.8333,185.167 95.8333,185.167 94.5,184.5 Z"/></g>
<g><path style="opacity:0.006" fill="#000000" d="M 158.5,185.5 C 158.5,185.167 158.5,184.833 158.5,184.5C 159.167,184.5 159.833,184.5 160.5,184.5C 160.158,185.338 159.492,185.672 158.5,185.5 Z"/></g>
<g><path style="opacity:0.012" fill="#000000" d="M 157.5,185.5 C 157.833,185.5 158.167,185.5 158.5,185.5C 158.315,186.17 157.981,186.17 157.5,185.5 Z"/></g>
<g><path style="opacity:0.008" fill="#000000" d="M 99.5,186.5 C 99.1034,187.525 98.4368,187.692 97.5,187C 98.0944,186.536 98.7611,186.369 99.5,186.5 Z"/></g>
<g><path style="opacity:0.008" fill="#000000" d="M 155.5,187.5 C 155.5,187.167 155.5,186.833 155.5,186.5C 156.167,186.5 156.833,186.5 157.5,186.5C 157.158,187.338 156.492,187.672 155.5,187.5 Z"/></g>
<g><path style="opacity:0.012" fill="#000000" d="M 101.5,187.5 C 100.833,188.167 100.833,188.167 101.5,187.5 Z"/></g>
<g><path style="opacity:0.008" fill="#000000" d="M 153.5,188.5 C 153.5,188.167 153.5,187.833 153.5,187.5C 154.167,187.5 154.833,187.5 155.5,187.5C 155.158,188.338 154.492,188.672 153.5,188.5 Z"/></g>
<g><path style="opacity:0.01" fill="#000000" d="M 104.5,188.5 C 104.5,188.833 104.5,189.167 104.5,189.5C 101.833,189.167 101.833,188.833 104.5,188.5 Z"/></g>
<g><path style="opacity:0.008" fill="#000000" d="M 151.5,189.5 C 151.5,189.167 151.5,188.833 151.5,188.5C 152.167,188.5 152.833,188.5 153.5,188.5C 153.158,189.338 152.492,189.672 151.5,189.5 Z"/></g>
<g><path style="opacity:0.008" fill="#000000" d="M 104.5,189.5 C 105.239,189.369 105.906,189.536 106.5,190C 105.563,190.692 104.897,190.525 104.5,189.5 Z"/></g>
<g><path style="opacity:0.008" fill="#000000" d="M 151.5,189.5 C 151.103,190.525 150.437,190.692 149.5,190C 150.094,189.536 150.761,189.369 151.5,189.5 Z"/></g>
<g><path style="opacity:0.01" fill="#000000" d="M 146.5,190.5 C 147.239,190.369 147.906,190.536 148.5,191C 147.563,191.692 146.897,191.525 146.5,190.5 Z"/></g>
<g><path style="opacity:0.008" fill="#000000" d="M 114.5,191.5 C 113.399,192.598 112.066,192.765 110.5,192C 111.793,191.51 113.127,191.343 114.5,191.5 Z"/></g>
<g><path style="opacity:0.009" fill="#000000" d="M 142.5,191.5 C 143.552,191.351 144.552,191.517 145.5,192C 144.251,192.74 143.251,192.573 142.5,191.5 Z"/></g>
<g><path style="opacity:0.01" fill="#000000" d="M 115.5,193.5 C 116.946,192.387 118.613,192.22 120.5,193C 118.866,193.494 117.199,193.66 115.5,193.5 Z"/></g>
<g><path style="opacity:0.01" fill="#000000" d="M 137.5,193.5 C 138.601,192.402 139.934,192.235 141.5,193C 140.207,193.49 138.873,193.657 137.5,193.5 Z"/></g>
<g><path style="opacity:0.004" fill="#000000" d="M 127.5,194.5 C 129.628,193.371 131.961,193.204 134.5,194C 132.19,194.497 129.857,194.663 127.5,194.5 Z"/></g>
</svg>
