<?xml version="1.0" standalone="no"?>
<!DOCTYPE svg PUBLIC "-//W3C//DTD SVG 20010904//EN"
 "http://www.w3.org/TR/2001/REC-SVG-20010904/DTD/svg10.dtd">
<svg version="1.0" xmlns="http://www.w3.org/2000/svg"
 width="512.000000pt" height="512.000000pt" viewBox="0 0 512.000000 512.000000"
 preserveAspectRatio="xMidYMid meet">

<g transform="translate(0.000000,512.000000) scale(0.100000,-0.100000)"
fill="#000000" stroke="none">
<path d="M2460 4779 c-902 -59 -1680 -658 -1969 -1514 -159 -472 -160 -951 -5
-1425 175 -534 564 -997 1064 -1265 360 -193 716 -275 1134 -262 342 10 628
82 928 232 346 174 645 439 863 765 180 269 300 583 352 920 26 175 24 492 -6
669 -41 242 -109 448 -217 661 -321 632 -922 1076 -1621 1195 -78 13 -367 37
-398 33 -5 0 -62 -4 -125 -9z m-930 -1842 c0 -566 -3 -546 94 -643 70 -70 131
-96 224 -96 114 0 208 47 269 136 57 83 57 81 60 604 l4 482 171 -2 170 -3 38
-105 c45 -127 78 -207 137 -325 59 -120 156 -295 163 -295 4 0 14 26 24 58 92
292 342 482 636 482 252 0 492 -147 605 -370 94 -186 94 -399 -1 -597 -86
-181 -241 -314 -434 -375 -63 -19 -95 -23 -200 -22 -147 2 -234 21 -367 84
-47 22 -87 39 -89 38 -1 -2 -34 -154 -73 -338 -39 -184 -73 -345 -76 -357 -5
-23 -7 -23 -181 -23 l-176 0 6 28 c3 15 51 233 106 485 55 253 100 466 100
474 0 8 -24 52 -54 96 -30 45 -84 134 -120 197 l-66 115 0 -110 c0 -139 -19
-229 -69 -330 -84 -170 -235 -297 -416 -351 -92 -28 -259 -26 -355 4 -171 53
-318 174 -397 327 -77 150 -76 138 -80 708 l-4 507 175 0 176 0 0 -483z"/>
<path d="M3415 2887 c-66 -22 -99 -43 -144 -92 -59 -64 -85 -126 -122 -290
l-31 -139 34 -28 c54 -45 171 -98 254 -115 129 -26 238 4 327 93 83 82 128
213 107 310 -34 152 -160 259 -317 270 -42 2 -84 -1 -108 -9z"/>
</g>
</svg>
